<?xml version="1.0" encoding="UTF-8"?>
<svg xmlns="http://www.w3.org/2000/svg" id="Layer_1" data-name="Layer 1" viewBox="0 0 24 24">
  <path d="m7,10c0,.552-.447,1-1,1H1c-.553,0-1-.448-1-1s.447-1,1-1h5c.553,0,1,.448,1,1Zm-1,3H1c-.553,0-1,.448-1,1s.447,1,1,1h5c.553,0,1-.448,1-1s-.447-1-1-1Zm8.5-4h-5c-.553,0-1,.448-1,1s.447,1,1,1h5c.553,0,1-.448,1-1s-.447-1-1-1Zm0,4h-5c-.553,0-1,.448-1,1s.447,1,1,1h5c.553,0,1-.448,1-1s-.447-1-1-1Zm8.5-4h-5c-.553,0-1,.448-1,1s.447,1,1,1h5c.553,0,1-.448,1-1s-.447-1-1-1Zm0,4h-5c-.553,0-1,.448-1,1s.447,1,1,1h5c.553,0,1-.448,1-1s-.447-1-1-1Zm-17,4H1c-.553,0-1,.448-1,1s.447,1,1,1h5c.553,0,1-.448,1-1s-.447-1-1-1Zm8.5,0h-5c-.553,0-1,.448-1,1s.447,1,1,1h5c.553,0,1-.448,1-1s-.447-1-1-1Zm8.5,0h-5c-.553,0-1,.448-1,1s.447,1,1,1h5c.553,0,1-.448,1-1s-.447-1-1-1Zm-17,4H1c-.553,0-1,.448-1,1s.447,1,1,1h5c.553,0,1-.448,1-1s-.447-1-1-1Zm8.5,0h-5c-.553,0-1,.448-1,1s.447,1,1,1h5c.553,0,1-.448,1-1s-.447-1-1-1Zm8.5,0h-5c-.553,0-1,.448-1,1s.447,1,1,1h5c.553,0,1-.448,1-1s-.447-1-1-1ZM15.5,3.5c0,1.93-1.57,3.5-3.5,3.5s-3.5-1.57-3.5-3.5,1.57-3.5,3.5-3.5,3.5,1.57,3.5,3.5Zm-2,0c0-.827-.673-1.5-1.5-1.5s-1.5.673-1.5,1.5.673,1.5,1.5,1.5,1.5-.673,1.5-1.5Zm-6.5,0c0,1.93-1.57,3.5-3.5,3.5S0,5.43,0,3.5,1.57,0,3.5,0s3.5,1.57,3.5,3.5Zm-2,0c0-.827-.673-1.5-1.5-1.5s-1.5.673-1.5,1.5.673,1.5,1.5,1.5,1.5-.673,1.5-1.5Zm12,0c0-1.93,1.57-3.5,3.5-3.5s3.5,1.57,3.5,3.5-1.57,3.5-3.5,3.5-3.5-1.57-3.5-3.5Zm2,0c0,.827.673,1.5,1.5,1.5s1.5-.673,1.5-1.5-.673-1.5-1.5-1.5-1.5.673-1.5,1.5Z"/>
</svg>
