<?xml version="1.0" standalone="no"?>
<!DOCTYPE svg PUBLIC "-//W3C//DTD SVG 20010904//EN"
 "http://www.w3.org/TR/2001/REC-SVG-20010904/DTD/svg10.dtd">
<svg version="1.0" xmlns="http://www.w3.org/2000/svg"
 width="500.000000pt" height="500.000000pt" viewBox="0 0 500.000000 500.000000"
 preserveAspectRatio="xMidYMid meet">

<g transform="translate(0.000000,500.000000) scale(0.100000,-0.100000)"
fill="#000000" stroke="none">
<path d="M474 3171 c-17 -11 -36 -34 -43 -52 -17 -49 -15 -430 3 -473 20 -49
51 -66 117 -66 97 0 89 31 89 -337 0 -268 3 -331 15 -357 28 -58 40 -61 268
-64 l207 -4 0 -62 c0 -100 29 -111 102 -39 l48 47 53 -52 c29 -29 58 -52 64
-52 28 0 43 32 43 95 0 66 6 75 52 75 11 0 33 13 49 29 l29 29 0 611 c0 435
-3 617 -11 635 -25 55 -34 56 -566 56 -462 0 -490 -1 -519 -19z m1016 -80 c14
-27 14 -945 0 -972 -10 -18 -25 -19 -378 -19 -273 0 -371 3 -380 12 -9 9 -12
97 -12 335 0 269 -3 329 -15 353 -20 40 -43 50 -110 50 -93 0 -95 3 -95 128 0
71 4 112 12 120 9 9 131 12 490 12 462 0 478 -1 488 -19z m-852 -379 l3 -53
-68 3 -68 3 -3 53 -3 53 68 -3 68 -3 3 -53z m492 -747 l0 -55 -202 2 -203 3
-3 53 -3 52 205 0 206 0 0 -55z m220 -47 l0 -101 -23 21 c-27 25 -69 29 -87 7
-7 -8 -16 -15 -21 -15 -10 0 -12 173 -2 183 3 4 35 7 70 7 l63 0 0 -102z m148
68 c6 -50 -6 -76 -33 -76 -24 0 -25 3 -25 56 0 54 0 55 28 52 21 -2 28 -9 30
-32z"/>
<path d="M1148 2633 l-108 -108 -53 53 c-56 55 -87 62 -87 18 0 -25 117 -146
140 -146 9 0 71 56 139 124 124 124 143 157 96 164 -14 2 -52 -30 -127 -105z"/>
<path d="M1696 3127 c-36 -55 -38 -323 -3 -396 11 -23 19 -26 70 -29 l58 -3
-3 72 c-3 77 10 100 29 49 14 -38 28 -38 42 0 5 17 15 30 22 30 8 0 9 -21 4
-76 l-7 -75 59 3 c51 3 59 6 70 29 38 79 35 358 -4 402 -24 26 -91 18 -136
-16 l-33 -25 -33 25 c-19 15 -51 28 -76 30 -38 5 -45 2 -59 -20z"/>
<path d="M2125 3139 c-11 -7 -23 -17 -27 -23 -4 -6 -8 -90 -8 -187 0 -224 -1
-223 122 -227 54 -2 92 2 108 10 31 17 45 63 31 102 -10 26 -15 28 -49 23 -82
-13 -86 -12 -90 6 -3 14 4 17 48 17 57 0 70 14 51 56 -10 22 -17 25 -54 22
-32 -2 -42 1 -42 12 0 11 15 16 57 18 69 4 88 23 88 93 0 69 -21 83 -129 87
-53 1 -94 -2 -106 -9z"/>
<path d="M2413 3139 c-12 -7 -25 -19 -28 -27 -11 -28 -6 -352 6 -373 5 -11 21
-24 35 -29 33 -13 146 -13 179 0 32 12 48 52 37 93 -8 30 -11 32 -48 30 -21
-1 -50 -3 -64 -5 -17 -2 -25 2 -28 15 -3 14 4 17 48 17 57 0 70 14 51 56 -10
22 -17 25 -54 22 -32 -2 -42 1 -42 12 0 11 15 16 57 18 69 4 88 23 88 93 0 69
-21 83 -129 86 -48 2 -96 -2 -108 -8z"/>
<path d="M2676 3128 c-18 -26 -22 -122 -6 -163 9 -23 14 -25 45 -19 l35 6 0
-98 c0 -119 11 -148 59 -152 84 -8 101 17 101 154 l0 95 37 -3 c43 -4 50 11
52 102 2 96 -5 100 -169 100 -132 0 -140 -1 -154 -22z"/>
<path d="M3225 2925 c-27 -26 -31 -46 -14 -76 7 -15 7 -24 -1 -34 -16 -19 -9
-66 12 -79 13 -8 26 -7 47 1 19 7 33 7 39 1 5 -5 22 -8 38 -6 27 3 29 7 32 48
5 67 -7 129 -29 151 -28 28 -93 26 -124 -6z m68 -82 c-7 -2 -21 -2 -30 0 -10
3 -4 5 12 5 17 0 24 -2 18 -5z m-4 -59 c-14 -18 -24 -11 -15 11 3 9 11 13 16
10 8 -5 7 -11 -1 -21z"/>
<path d="M1711 2474 c-27 -34 -36 -110 -36 -304 0 -180 17 -270 55 -290 20
-11 119 -14 144 -4 19 7 20 28 5 103 -8 41 -8 64 0 84 15 38 27 34 43 -15 18
-57 38 -59 63 -6 36 78 49 35 30 -104 -7 -55 -7 -57 17 -63 13 -3 48 -5 78 -3
68 4 85 25 105 131 27 142 13 416 -24 467 -17 22 -25 25 -84 24 -60 0 -70 -4
-113 -37 l-47 -37 -31 27 c-43 36 -87 53 -140 53 -36 0 -48 -5 -65 -26z"/>
<path d="M2309 2485 c-47 -26 -52 -55 -47 -302 5 -245 10 -271 57 -293 69 -32
244 -23 289 15 23 20 27 31 26 78 0 30 -6 62 -13 71 -17 21 -64 20 -119 -1
-39 -15 -45 -15 -59 0 -9 8 -13 23 -9 32 5 13 18 16 67 13 70 -3 89 11 81 62
-6 45 -37 61 -90 49 -46 -10 -62 -6 -62 16 0 19 28 26 100 24 74 -2 96 14 108
81 12 66 4 115 -25 142 -23 21 -34 23 -151 26 -97 1 -133 -1 -153 -13z"/>
<path d="M2706 2478 c-21 -33 -34 -123 -41 -288 -7 -170 5 -288 31 -307 25
-18 148 -17 163 1 8 10 10 38 5 90 -4 48 -3 76 3 76 6 0 22 -29 37 -64 38 -90
62 -109 139 -114 42 -2 68 1 80 10 28 21 47 117 54 273 5 102 9 131 15 109 12
-46 30 -57 72 -46 19 6 37 7 40 4 3 -3 6 -60 6 -126 0 -189 19 -226 113 -226
71 0 103 34 112 121 3 35 4 96 2 134 -6 90 2 107 45 94 18 -5 36 -9 40 -9 28
0 53 138 38 207 -19 84 -16 83 -236 83 l-193 0 -19 -25 c-11 -14 -24 -45 -28
-68 l-7 -42 -12 48 c-20 77 -37 90 -122 85 -59 -3 -76 -8 -97 -27 -34 -32 -33
-50 9 -178 34 -104 44 -163 27 -163 -11 0 -22 38 -56 190 -15 64 -35 130 -46
148 -19 31 -22 32 -90 32 -61 0 -71 -3 -84 -22z"/>
<path d="M3795 2477 c-83 -47 -129 -160 -129 -317 1 -77 5 -105 24 -147 43
-101 130 -152 238 -139 65 8 97 23 138 68 67 71 89 159 73 291 -13 114 -55
199 -117 238 -40 25 -56 29 -116 29 -55 0 -80 -5 -111 -23z m144 -238 c20 -30
22 -42 18 -102 -9 -106 -47 -147 -84 -90 -27 40 -26 182 1 212 24 27 35 23 65
-20z"/>
<path d="M4193 2474 c-28 -43 -43 -367 -24 -518 9 -75 24 -86 114 -86 98 0
107 7 107 84 0 34 3 66 7 69 15 16 33 -18 33 -64 0 -71 22 -89 103 -89 83 0
98 15 98 98 1 70 -11 96 -52 121 -27 17 -28 19 -13 32 32 26 54 91 54 160 0
91 -37 164 -99 196 -40 21 -58 23 -177 23 -133 0 -134 0 -151 -26z m231 -260
c9 -8 16 -24 16 -34 0 -19 -25 -50 -40 -50 -25 0 -39 67 -18 88 16 16 23 15
42 -4z"/>
</g>
</svg>
